<svg version="1.0" xmlns="http://www.w3.org/2000/svg" width="2048" height="1536" viewBox="0 0 12000 9000"><g fill="#010101"><path d="M8185 8993c-16-2-55-11-85-18-34-9-106-14-188-13-85 0-138-4-145-11-6-6-35-11-65-11-59 0-51 6-166-118l-39-42h-111c-271 0-356-53-385-238-10-66-25-109-80-237-10-22-24-56-31-75-25-66-79-145-124-183-40-33-46-43-46-77 0-31 6-43 26-57 89-62 125-118 178-277 37-111 45-154 72-385 33-293 57-431 75-431 5 0 9-9 9-20s8-53 19-93c35-133 34-129 12-118-11 6-42 11-70 11-56 0-81-22-81-72 0-26-1-27-31-16-20 7-73 9-143 5-108-6-164-19-306-72-25-9-96-30-159-47-62-16-130-36-150-43-43-18-133-33-261-45-52-5-133-14-180-19-47-6-92-11-101-11-12 0-18 22-28 102-7 56-17 110-22 120-6 10-18 52-29 93-10 40-34 102-52 137-19 35-44 88-58 118-13 30-65 118-116 195-50 77-105 165-121 195-17 30-53 98-81 150-62 117-96 219-111 331-13 95-7 122 40 199 33 53 148 166 210 206 24 16 71 53 105 84 87 80 158 98 236 60 23-11 51-20 62-20 12 0 34-7 50-15 73-39 203 0 275 81 40 46 121 200 121 232 0 10 5 23 11 29s11 45 12 87c2 71 0 79-22 97-14 11-39 19-62 19-21 0-41 6-46 14-16 26-59 40-148 48-49 4-116 11-148 14-38 4-69 1-90-7-23-10-87-13-244-11l-212 2-26-27c-15-16-52-62-83-103s-70-90-87-109c-33-36-189-150-270-196-27-16-72-48-99-72-26-24-54-43-60-43-7 0-38-24-69-52-31-29-77-69-103-88-62-48-144-138-144-159 0-9-6-23-12-30-16-15-15-138 1-154 6-6 11-20 11-31 0-12 22-55 48-96 73-114 86-191 56-320-8-36-20-90-25-120s-23-82-39-115-32-79-36-102c-7-44-27-56-51-32-8 8-13 8-17 0-12-19-22-13-84 47-60 58-168 125-376 231-93 48-253 107-372 137-30 8-80 21-111 29-55 14-208 40-391 66-119 17-276-3-392-49-19-7-34-5-60 8-19 9-60 25-90 35s-78 29-107 42c-28 13-57 23-63 23s-38 15-72 33c-33 17-69 36-79 42-15 7-19 21-19 57 0 27-4 48-10 48-13 0-14 217-1 224 5 4 12 44 16 91s11 88 16 91 9 16 9 29c0 26 68 164 93 189 32 33 91 66 116 66 14-1 51-14 81-30 67-36 71-36 108-5 20 17 42 25 67 25 64 0 98 28 141 120 68 143 83 232 45 268-146 137-253 180-341 135-30-15-37-15-84 0-100 30-194 41-393 44-188 4-205 2-242-17-48-24-71-63-71-122 0-80-55-192-128-261-26-25-41-30-112-36s-84-10-101-31c-20-27-25-69-10-98 27-55 65-194 88-325 20-118 28-286 14-300-6-6-11-46-11-90 0-49-10-120-26-190-22-94-25-129-22-217 5-119 20-162 69-210 35-33 53-42 169-85 41-15 98-39 125-53 57-29 299-112 326-112 10 0 21-4 24-10 3-5 17-10 31-10s37-6 52-14c15-7 92-37 172-66s146-56 148-61c2-4 10-5 17-3 15 6 71-32 116-76 26-27 135-220 155-276 25-71 349-524 374-524 12 0 133-170 146-205 6-16 14-37 18-45 5-13-7-15-82-12-147 6-273-25-397-96-103-60-216-130-250-156-57-43-239-226-256-257-72-135-93-182-110-247-114-445 275-858 961-1022 140-33 239-43 470-47 381-7 603 26 900 133l105 38h180c161 1 187-1 250-22 113-36 209-128 209-199 0-40-47-93-81-93-13 0-49-13-80-30-79-42-116-40-178 10-28 23-60 52-72 65s-48 41-80 62l-58 38-160-3c-120-2-171-6-205-19-25-9-47-20-50-23-3-4-12-9-21-12-37-14-200-143-205-163-3-11-17-30-31-41-87-64-103-93-63-114 29-16 24-49-15-99-38-47-44-81-19-102 13-11 20-10 42 4 100 62 231 94 361 89l44-2-20-22c-32-36-73-106-73-126 0-48 56-56 97-13 34 34 94 59 167 67 39 5 89-1 187-21 181-37 274-33 347 13 27 18 64 46 81 63 35 33 121 160 121 178 0 6 10 11 23 11 29 1 128 57 185 106 95 81 147 208 122 301-30 112-104 190-245 257-140 67-189 80-415 112-298 43-919 2-1130-74-78-29-315-9-366 30-6 4-33 11-60 14-27 4-65 15-84 24-19 10-62 27-96 38-90 31-255 111-274 133-3 3-27 19-54 34-69 40-195 169-231 235-25 47-29 66-30 131 0 53 5 83 16 100 126 191 486 286 769 202 96-28 247-100 300-142 32-26 221-121 240-121 5 0 10-3 12-7 7-16 242-123 269-123 10 0 27-4 37-9 55-29 340-101 512-130 106-19 332-72 370-88 19-8 65-30 101-49 37-19 74-34 83-34s16-4 16-9c0-4 21-16 48-26 26-10 76-35 111-57 34-21 65-38 67-38 6 0 138-83 144-91 12-16 195-119 211-119 10 0 21-4 24-10 3-5 16-10 28-10s42-7 67-15c220-72 296-95 314-95 11 0 56-12 99-26l78-26-40-42c-107-110-105-107-106-165 0-49 3-57 27-70 25-15 29-14 58 8 38 28 211 91 249 91 30 0 74-40 89-80 5-14 17-68 26-120 20-106 26-124 73-194 18-26 33-52 33-56 0-10-46 2-78 19-28 15-60 14-124-3-76-20-105-33-128-56-26-26-26-74 0-100 18-18 28-20 84-14l64 7 52-49c77-72 99-123 111-257 10-120 28-252 36-273 2-7-4-15-14-18s-58-43-106-89c-77-72-89-89-103-138-14-50-14-59 0-92 13-33 19-37 52-37 20 0 53 9 73 19 121 64 142 70 211 59 121-19 180-68 251-210l43-86-19-36c-16-30-22-33-35-23-23 19-117 62-186 86-278 93-569 16-700-187-53-82-74-157-74-263 0-240 165-490 415-628 50-28 97-51 103-51 8 0 12-18 12-47 0-67 33-189 72-269 49-101 159-208 268-261 124-61 158-68 305-67 99 0 143 4 185 19 51 17 134 58 153 75 5 4 30-13 55-39 68-66 223-143 301-149 58-4 197 21 303 54 46 15 48 15 80-9 68-50 128-59 350-54 215 5 248 11 359 67 96 49 198 134 236 195 40 64 65 123 78 183 12 58 12 80 1 144-32 182-153 327-355 425l-93 45 7 31c4 18 13 59 19 92s14 65 17 70c4 6 10 25 14 43s13 36 19 38c7 3 27 36 45 73 17 37 45 82 62 99 27 27 38 31 107 36 217 15 247 20 283 47 21 17 55 65 89 129 54 101 107 160 141 160 10 0 19 3 21 8 2 4 28 16 58 26s109 45 175 77c66 31 143 66 170 77 91 37 190 89 210 112 15 16 20 36 20 77 0 52-2 56-43 91l-43 37 7 95c9 131-5 193-62 271-34 46-57 65-92 80-29 12-52 29-59 45-11 24-9 30 20 66 27 34 32 49 35 106 3 56-2 81-29 152-21 54-34 112-38 160-6 69-8 75-30 78-42 6-69-7-92-45-12-21-24-40-25-42-2-2-10 2-19 9-19 15-68-5-104-44-22-24-32-26-102-26-64 0-86-5-125-25-29-16-63-25-91-25-80 0-223-38-263-70l-37-30-26 38c-37 55-42 93-18 139 11 21 118 137 238 259 249 252 318 337 374 461 32 73 39 99 39 154 0 104-29 169-77 169s-61-17-98-132c-20-62-41-123-47-136-16-31-162-140-155-115 3 10 9 34 12 53 12 62 48 174 64 200 9 14 41 59 71 100 31 41 74 111 95 155l40 80 3 160c2 88 8 164 13 170 5 5 9 19 9 32 0 12 14 63 31 114 35 102 32 133-17 145-43 11-73-13-128-104l-51-83-6 68c-3 41-16 90-31 123-14 30-34 82-44 114-21 65-76 155-146 237-25 30-67 86-94 125s-73 100-103 135c-80 94-111 169-111 267 0 84-14 112-56 112-50 0-70-46-81-187-3-35-9-63-14-63-4 0-24 24-42 53-19 28-51 70-71 92-61 67-88 123-102 209-7 43-19 83-26 87-40 26-98-8-98-57 0-19-4-34-10-34-8 0-18 28-36 105-9 42-32 65-65 65-46 0-59-10-65-52l-7-39-18 51c-24 70-35 80-79 80-33 0-41-5-60-35-12-19-24-50-27-70s-7-34-9-33c-9 10-67 243-75 299-4 37-15 82-23 100-8 19-29 75-46 124-18 50-36 99-40 110-5 11-20 61-35 110-15 50-40 129-56 177s-29 93-29 100-19 49-41 93c-23 44-50 98-61 119-20 38-53 175-65 264-6 42 12 108 56 207 10 22 38 85 62 140 23 54 55 113 70 129l26 30 53-22c40-17 73-22 134-22 196 0 266 51 357 263 46 107 53 132 57 205 5 109-8 132-76 132-26 0-64-8-83-18l-36-18-23 48c-14 29-35 55-51 64-27 13-104 16-174 7zM10157 7413c-23-22 16-79 47-67 19 7 21 45 4 62-13 13-41 16-51 5zM10807 6063c-11-10-8-41 4-49 16-9 43 21 36 40-7 16-28 21-40 9z"/></g><g fill="#f253fe"><path d="M1615 8878c-3-7-14-49-25-93-26-103-48-147-114-226-62-76-107-99-191-99-30 0-55-2-55-4s11-28 25-57c39-87 103-450 90-516-2-10-9-81-15-158-7-77-21-178-32-225-26-108-27-253-3-303 17-36 74-73 150-97 22-7 87-34 145-60 119-53 395-141 515-163 93-17 230-73 314-127 80-52 134-123 216-287 59-120 176-307 276-446 51-71 170-208 254-293 272-277 294-304 240-304-34 0-82 25-122 63-18 17-36 28-39 24-10-10 74-146 123-199 23-26 43-51 43-57 0-5 27-39 60-75 64-70 74-96 38-96-59 0-191 126-296 282-61 91-79 98-206 79-232-35-480-164-662-346-221-221-276-448-164-680 76-158 205-278 404-380 250-127 535-191 891-202 327-9 523 15 900 112 116 30 240 57 276 61 192 19 466-93 529-216 24-47 27-138 6-179-15-28-69-80-103-99-17-10-17-11 0-30 10-11 32-26 49-33 31-13 31-12 110 70 85 88 117 144 118 204 1 167-273 304-698 348-71 7-197 10-335 6-242-6-388-24-614-76-151-36-169-36-309-16-566 84-1022 420-1001 737 12 186 156 307 462 388 39 11 86 24 105 30 139 41 440-29 566-133 44-36 143-93 201-116 29-11 96-42 150-69 218-108 422-172 813-252 239-49 311-73 500-166 197-96 290-150 468-270 107-73 137-87 240-119 136-43 412-139 460-160 21-10 32-22 32-35 0-11 3-20 6-20 12 0 50 25 100 66 39 31 65 44 96 48 246 28 321 33 364 23 31-8 33-7 63 55 18 35 49 90 70 123 29 46 40 74 45 120 7 67 26 91 57 74 17-9 19-24 19-165 0-128 3-164 20-212 27-77 66-112 126-112 52 0 51-8 20 105-26 94-42 271-26 290 26 32 70 11 70-34 0-66 16-79 113-96 44-7 102-54 111-90 4-14 10-25 15-25 14 0 51 117 58 181 9 85-1 117-73 235-103 170-119 236-90 386 15 75 75 224 122 300 41 68 68 82 97 53 13-12 14-41 10-170-9-233 20-319 124-365 25-11 49-17 54-14s9 31 9 62c1 68 23 201 39 231 13 23 50 28 69 9 7-7 12-31 12-55 0-33 7-50 31-78 45-51 55-35 41 64-14 96-54 183-118 251-73 78-52 123 44 93 104-34 183-117 238-251 13-31 27-58 33-60 18-6 42 101 48 208 4 71 0 140-11 213-29 191-17 419 26 520l21 49-27 56c-15 32-52 94-82 138-30 45-54 85-54 89s-24 46-52 93c-44 71-59 109-90 226-53 200-90 325-132 446-20 58-62 188-92 289-40 133-72 217-114 300-50 98-63 136-85 240-14 68-25 140-25 160 0 62 130 404 192 508 21 35 42 56 61 63 50 17 124 12 180-12 94-41 220-23 281 41 32 34 102 190 124 279 20 82 11 93-55 66l-48-20-2-56c-1-34-12-81-28-119-52-122-99-169-171-169-35 0-47 6-73 35-35 40-38 57-15 79 19 20 44 20 70 1 33-25 44-17 77 53 26 54 32 79 32 132-1 37-7 78-16 95-14 29-17 30-69 27-30-2-73-8-95-14s-130-12-239-13l-200-2-65-71c-37-39-80-78-98-86-35-18-36-19-58-130-36-174-130-351-257-482-73-75-77-81-63-101 27-39 92-198 109-268 10-38 39-137 66-220 118-362 111-337 145-566 46-304 46-313 36-454-16-214-86-387-182-450l-45-30 4-55c2-34 11-65 23-80 10-14 36-48 58-75 75-98 129-235 138-353 6-73 6-74-18-70-21 3-29 17-59 103-47 131-88 206-156 284-30 35-70 86-88 115-18 28-45 62-60 75-35 32-35 77-2 93 21 9 24 16 19 39-10 54 40 77 92 43 23-15 25-15 49 11 25 27 86 167 86 198 0 12-8 17-31 17-16 0-65 17-108 39l-78 39-9-32c-7-25-15-32-41-34-22-2-35 3-46 18-10 15-40 26-113 41-88 19-107 20-169 9-90-15-138-29-272-78-60-23-147-48-194-57-46-9-116-23-155-31-378-79-816-107-996-64-46 11-120 28-165 39-114 27-173 55-173 80 0 11 5 23 12 27 19 12 100 6 147-11 24-8 45-14 46-13 2 2-2 24-8 51l-12 47-60-7c-33-5-112-7-175-7-100 2-144 7-222 30-30 9-21-11 46-99 78-104 140-212 132-232-11-28-33-15-77 47-24 33-69 91-99 127-31 36-87 107-125 156-38 50-101 128-140 175s-94 119-123 161c-28 42-95 121-149 175-98 99-98 99-293 196-293 145-489 202-835 243-171 20-205 19-306-6-108-27-135-41-185-95-43-45-68-53-105-34-20 11-27 40-9 40 6 0 10 8 10 18s9 35 20 57 20 42 20 46c0 3-53 19-117 34-161 38-184 47-279 111-89 60-106 84-80 113 14 16 15 30 6 107-20 174-8 357 31 489 41 138 98 218 184 261 47 23 64 26 111 21 31-3 74-17 101-31 25-14 47-26 48-26s15 24 29 54c35 71 76 210 76 257 0 32-5 41-34 58-38 24-59 26-105 10-27-10-31-16-31-47-1-157-90-260-218-250-23 2-43 8-43 13-1 6 23 18 52 28 94 32 129 82 129 187 0 53-3 62-22 70-47 20-179 33-366 37-153 4-193 2-197-9z"/><path d="M5557 8752c-73-14-111-15-218-8l-130 8-31-28c-16-16-44-49-61-74-79-117-207-234-364-332-57-36-107-68-213-138-89-59-217-198-226-246-9-47 8-100 62-199 54-100 74-176 74-282 0-101-45-311-86-398-25-54-28-71-28-175-1-114 0-117 37-193 67-136 100-161 257-192 89-18 281-16 430 4 69 9 110-4 110-34 0-14-5-20-49-53-22-17-22-19-8-53 9-22 33-49 63-70l49-33 143-4c79-2 148 0 153 5 13 13-16 175-49 273-48 140-153 347-249 490-50 74-109 171-131 215-23 44-55 100-72 125-32 48-90 212-90 258 0 15-7 40-15 56-8 15-15 42-15 60 0 41 35 167 60 216 25 48 194 214 253 249 25 14 76 50 114 78 78 60 155 93 216 93 23 0 75-11 115-25 138-47 213-29 287 68 41 54 100 181 110 240l7 37h-99l-13-42c-20-69-47-98-124-133-107-48-162-60-192-40-26 17-31 47-11 62 6 5 57 20 112 32 117 26 138 38 165 91 17 33 27 79 18 80-2 1-46 5-98 10-52 4-113 11-135 14-22 2-80-3-128-12zM2510 8741c0-27-57-185-80-224-23-38-25-47-7-47 33 0 79 80 118 204 13 44 15 63 7 73-16 19-38 16-38-6zM7275 8660c-130-11-150-30-169-156-9-58-27-122-54-184-22-52-49-119-60-147-21-56-106-183-123-183s-9-22 25-64c50-60 94-167 142-341 17-62 32-172 49-350 25-260 67-483 116-625 10-30 19-71 19-91 0-42 11-53 97-100s88-44 88 134c0 258-64 587-181 922-19 55-43 137-54 182s-40 128-65 184c-25 57-45 111-45 121 0 9 9 23 20 31 12 8 33 34 49 58 15 24 46 65 68 91 88 101 193 335 218 486l7 42-34-1c-18-1-69-5-113-9zM7105 6686c3-11 10-39 16-64 11-52 26-82 39-82 16 0 12 13-26 91-19 41-33 65-29 55zM9911 3296c-8-9-11-19-7-23 9-9 29 13 24 27-2 8-8 7-17-4zM10100 3248c-15-77-25-98-49-98-27 0-40 21-47 74-9 61-22 49-64-54-18-44-38-85-46-91-25-20-47 12-52 75-2 31-6 56-8 56-3 0-37-9-76-20-40-11-85-20-100-20s-73-10-130-22c-86-18-108-27-139-55-44-40-84-53-156-53-29 0-53-3-53-7 0-5 15-35 33-68 37-65 78-99 141-116 55-14 86-35 86-59 0-31-28-50-73-50-23 0-53-3-65-7-21-5-23-10-17-40 6-31 4-35-30-49l-36-15 18-30c10-17 35-44 56-61 38-30 49-69 25-85-7-4-42-17-78-29-54-18-65-25-66-45-2-29-30-52-128-101l-78-39 25-27c32-34 47-72 47-122 0-39-9-50-84-103-32-22-24-47 15-47 15 0 38-5 51-10 28-13 68-72 68-101 0-11 10-35 22-51 12-17 32-56 44-87l23-56 58 1c122 1 300 17 315 28 9 7 43 57 76 111 83 136 114 164 252 224 63 27 160 72 215 99s117 55 137 61c34 11 56 28 47 35-2 2-35 0-74-5-86-10-105-5-105 26 0 27 28 50 85 69 18 7 58 30 88 52l54 39 7 102c4 62 3 116-3 140-14 51-82 119-166 167l-69 39-112-13c-187-22-263-4-333 76-27 30-31 42-31 94 0 57 2 61 33 80 34 21 82 26 107 10 8-5 24-28 35-51 28-59 86-87 206-100 85-8 95-8 106 8 7 10 25 36 41 58s32 50 35 62c5 22-19 128-42 186-6 16-11 39-11 53 0 46-17 24-30-38zm-54-489c7-12-15-31-28-23-4 3-8 12-8 20 0 17 26 19 36 3zm64-29c0-11-6-20-14-20-18 0-29 16-21 30 11 18 35 11 35-10zm80-15c13-16 6-35-15-35-18 0-28 17-21 35 7 19 20 19 36 0zm-257-31c10-10-12-44-28-44-18 0-28 17-21 35 5 15 37 20 49 9zm87-43c0-23-14-41-31-41-20 0-23 8-13 34 6 17 44 23 44 7zm90-25c0-28-12-46-31-46-13 0-19 7-19 23 0 13 3 27 7 30 12 13 43 7 43-7zm65-17c0-15-7-25-18-27-22-4-33 24-17 43 18 21 35 13 35-16zm98-8c6-23 0-31-24-31-22 0-33 16-25 35 8 22 43 18 49-4zm-363-85c0-7-7-19-15-26-19-16-41 1-32 24 8 20 47 21 47 2zm106 3c8-14-21-43-35-35-6 4-11 16-11 27 0 21 34 27 46 8zm203-23c18-22-4-62-25-45s-17 59 6 59c4 0 13-6 19-14zm-89-10c0-8-4-17-8-20-13-8-35 11-28 23 10 16 36 14 36-3zm175 4c8-13-13-40-31-40-14 0-19 31-7 43 10 10 31 8 38-3zm-110-80c4-12 1-27-5-35-14-17-46-20-55-5-11 17-23 11-29-15-8-30-32-33-41-5-6 20 9 60 23 60 5 0 13-5 20-12 10-10 16-7 28 10 19 28 51 28 59 2zm-197-32c24-24 14-46-20-44-32 2-44 16-34 41 7 18 37 20 54 3zm-381-269c8-8 17-8 31 0 29 15 62 14 62-3 0-7-8-16-18-18-29-8-62-87-55-135 5-38 2-45-38-88-50-55-77-71-91-57-13 13-3 44 27 76l24 26h-22c-13 0-31 6-42 13-38 24-92 38-116 29-13-5-30-7-36-5-31 11 0 56 48 68 15 4 29 17 36 35 16 42 68 70 129 70 27 0 55-5 61-11zM9730 3275c-11-13-8-15 17-15 16 0 38 7 49 15 18 13 17 14-17 15-21 0-42-7-49-15z"/></g><g fill="#fbfb46"><path d="M8381 6312c-1-19-8-49-17-67-15-32-14-35 12-87 14-29 41-74 60-99 56-78 122-226 179-409 65-207 87-310 83-382-3-46-6-53-25-56-31-5-47 26-73 142-12 54-37 130-55 168-19 39-37 95-41 126-3 32-9 61-12 67-11 18-23-50-29-160-4-86-1-136 15-230 44-250 39-348-22-527-47-136-100-228-130-228-40 0-46 20-45 137 1 91-2 117-19 154-16 33-19 36-14 14 3-16 6-68 5-115-1-95-35-215-65-234-27-17-52 5-60 52-10 60-48 125-63 110-3-2-9-43-14-91l-10-88 33-44c44-58 70-135 71-212 0-72-17-101-41-69-8 11-14 32-14 48 0 44-35 124-80 184-34 45-54 60-121 91-63 29-86 45-108 77-42 61-72 152-78 234-3 40-9 69-13 65-18-20-50-130-56-192-8-82 10-128 104-267 76-114 86-145 79-253-6-109-28-174-102-295-60-100-100-137-124-113-11 11-24 2-33-26-4-11-27-11-133-2-128 10-158 20-196 62-42 49-69 111-84 197l-12 71-35-70c-51-101-52-108-25-148 13-19 30-56 37-82 14-52 46-75 103-75 38 0 57-15 57-46 0-74-145-71-199 5-10 14-33 61-52 104-43 103-61 114-174 99-44-7-116-14-159-17-85-5-96-10-166-75l-45-41 45 7c67 11 84 7 134-26 86-58 112-108 136-264 11-72 27-110 67-163 24-32 83-195 83-231 0-21-18-42-36-42-7 0-31 15-53 34-29 25-61 39-110 50-91 21-91 21-43-13 131-96 164-169 182-406 13-176 18-192 91-255 62-54 72-82 37-103-12-8-24-5-51 16-20 15-49 27-65 27-35 0-102-43-158-102-38-39-65-88-49-88 3 0 37 16 74 35 38 20 91 38 119 42 68 8 181-27 245-75 48-37 110-117 122-159 10-35 22-27 28 18 8 58 67 142 123 175 88 52 204 27 391-83 50-30 135-72 189-93l98-38 35 30c64 56 178 91 221 68 12-6 30-32 41-57 16-39 21-43 35-33 13 12 12 16-11 40-33 34-33 68 0 76 19 5 39-2 78-28 112-74 227-102 317-78 48 12 167 78 174 96 2 6-5 31-16 55-15 35-17 48-8 62 10 16 9 18-7 13-169-49-389-71-442-43-29 14-34 26-21 47 7 11 39 16 137 21 134 7 300 37 368 66l40 18-40 5c-37 5-40 7-38 35 2 29-2 31-95 71-86 36-97 44-100 67-2 18 2 29 13 33 8 4 73-3 143-15 132-22 257-27 281-12 11 7 10 14-6 37-36 51-66 132-59 159 7 28 41 34 66 13 8-7 1 2-15 20-33 37-83 66-160 92-41 14-51 21-53 43-3 21 2 29 21 36 29 11 113-6 165-33 17-9 32-15 32-13 0 1-22 48-49 103-63 128-81 183-81 245 0 63 13 89 46 89 26 0 44-30 44-74 0-12 7-46 15-74 12-40 21-53 40-58 41-10 46 4 14 49-49 71-56 166-17 241 16 31 190 226 341 380 59 61 107 114 107 118 0 12-100-54-141-94-24-24-44-35-54-32-19 8-38 41-30 54 3 5 12 47 20 92 51 292 63 327 172 486 81 119 112 188 123 277 11 86 13 205 3 205-5 0-23-23-42-51-28-40-36-62-39-112-2-34-9-68-14-74-15-19-46-16-57 5-10 20-6 146 9 260 14 106 12 184-5 209-8 11-28 58-45 104-32 87-58 126-195 297-146 181-170 213-217 290-42 66-48 72-48 46 0-16 13-46 30-68s30-49 30-62c0-27-24-48-43-37-15 9-121 128-179 201-21 26-59 74-86 107s-64 82-81 109c-17 28-31 44-31 37 0-19 26-64 49-85 40-36 16-90-29-66-43 23-119 140-156 240l-13 35v-31c-1-18 15-63 36-103 33-65 35-73 21-87-23-24-47-10-103 58-66 79-84 109-111 182-21 55-23 58-23 28z"/><path d="M7446 3998c20-113 42-161 87-188l31-19 13 31c15 36 17 131 3 157-10 20-47 36-102 46l-38 6 6-33zM4195 3695c-32-15-17-19 34-9 17 4 31 10 31 15 0 13-30 10-65-6zM4254 3619c-83-14-99-23-99-55 0-20-9-34-32-50-23-15-29-24-21-32 16-16 2-41-29-52-68-25-95-50-54-50 10 0 25-7 32-16 11-14 10-19-9-34-12-10-28-20-35-23-31-11 4-14 58-5 33 5 125 8 204 5 123-4 146-7 157-22 14-19 3-55-16-55-6 0-10-4-10-10s30-10 69-10c37 0 125-9 193-19 132-20 166-18 228 14 40 21 158 138 179 177 13 25 12 29-10 47-24 19-24 19-69-7-39-24-56-27-131-27-99 0-113 7-232 128-89 90-128 107-237 106-47-1-108-5-136-10zM10100 3248c-15-77-25-98-49-98-27 0-40 21-47 74-9 61-22 49-64-54-33-82-51-107-70-95-15 9-70-44-70-67 0-22 63-63 116-76 21-6 71-13 111-16 68-6 73-5 84 16 7 13 24 39 39 58s30 45 33 57c5 22-19 129-42 186-6 16-11 39-11 53 0 46-17 24-30-38zM6640 3191c0-10 50-21 94-21l31 1-25 14c-27 16-100 20-100 6zM6805 2421c-17-10-36-26-44-35-12-14-6-13 35 6 62 29 59 27 48 38-6 6-20 3-39-9zM8240 1996c-5-13-14-27-20-31-22-14 3-25 56-25 30 0 54 2 54 4s-7 20-15 40c-19 44-60 51-75 12zM8480 1950c0-5 9-10 20-10s20 5 20 10c0 6-9 10-20 10s-20-4-20-10z"/></g><g fill="#f79dff"><path d="M5168 8713c-19-21-49-58-65-83-17-25-49-66-72-91-42-48-213-184-266-212-16-8-53-33-82-54s-80-54-115-73c-65-37-228-194-228-220 0-8-7-28-15-44-11-21-12-32-4-42 6-8 8-21 5-30s0-28 8-42c7-15 29-59 49-97 73-143 85-276 42-463-13-59-26-123-28-142-3-19-8-43-12-53-4-9-2-23 4-31 6-7 8-16 5-19-12-12 47-19 109-14 70 6 149 39 185 77 63 67 104 214 101 362-2 109-8 138-64 298-35 98-36 109-27 158 13 61 52 120 102 153 201 133 457 373 510 479 32 63 54 150 39 150-5 0-8 3-8 8 5 33-42 62-101 62-29 0-43-8-72-37zM7543 8669c-39-19-40-21-57-105-9-46-27-113-41-149-39-104-132-254-207-331l-69-71 77-77c42-42 80-76 85-76 4 0 12-6 16-14 15-25 38-23 56 6 9 16 17 33 17 39s6 25 14 42c8 18 20 52 27 77 16 57 14 50 27 83 7 16 12 31 12 34s11 29 24 57 40 94 60 146 46 118 57 146c26 67 24 149-5 176-38 36-51 38-93 17zM7173 8627c-48-18-52-26-67-123-9-58-27-122-54-184-52-123-82-202-82-217 0-7 8-13 18-13s35-9 57-20c52-26 79-25 98 4 9 13 34 44 55 69 58 67 157 258 187 362 24 85 27 143 5 130-12-8-127-8-161-1-13 3-38 0-56-7zM1457 8529c-60-51-104-69-172-69-30 0-55-2-55-4s11-28 25-57c39-87 103-450 90-516-2-10-9-81-15-158-7-77-21-178-32-225-26-108-27-253-3-303 17-36 74-73 150-97 22-7 87-34 145-60 119-53 395-141 515-163 93-17 230-73 314-127 80-52 134-123 216-287 59-120 176-307 276-446 53-73 171-209 254-292 44-44 107-110 140-146s77-79 98-96c42-33 42-63 2-63-36 0-39-15-12-67 14-27 32-66 42-88 9-22 21-47 26-55s13-25 19-37c5-12 20-29 34-38 19-13 25-24 22-46-4-31 4-42 74-104 25-22 44-42 43-46s5-6 15-5c9 0 16-4 15-11-3-12 52-35 61-26 3 4 14-1 23-9 22-20 196-106 283-141 149-59 368-119 650-177 239-49 311-73 500-166 197-96 290-150 468-270 107-73 137-87 240-119 64-20 178-59 253-85 79-28 145-47 157-43 30 7 72 128 72 207 0 84-79 156-370 338-246 153-331 199-486 261-136 55-222 81-534 162-149 39-228 61-360 102s-468 150-490 160c-8 3-17 7-20 7-20 3-163 81-251 136-58 36-130 81-160 98-132 78-184 170-204 362-9 83-41 218-72 301-15 41-80 167-145 281s-118 210-118 213c0 16-97 150-151 209-64 69-204 179-280 219-24 13-84 36-134 51-122 38-183 61-292 107-50 21-97 39-105 39s-18 4-24 9c-5 6-20 12-34 15s-89 21-167 41c-230 58-301 99-344 199-23 54-23 93 2 251 17 107 18 595 2 650-7 22-16 56-21 75-12 47-76 151-105 172-23 16-25 15-70-23zM2655 5322c-141-78-218-134-311-227-131-131-203-264-220-408-15-131 46-295 160-429 71-84 74-86 114-97 25-8 28-6 30 17 1 14-3 41-9 61-18 59-21 496-4 557 19 65 61 123 127 174 29 22 60 46 68 54 8 7 29 21 47 30 44 22 67 49 98 112 29 58 40 151 21 175-21 29-41 25-121-19z"/></g><g fill="#fbf8d1"><path d="M6818 3845c-3-3-50-7-106-8-109-4-114-6-192-76-42-38-43-40-20-40 18-1 21 2 11 8-8 5-9 11-3 15 6 3 13 2 17-3 3-5 22-10 43-9 62 1 173-86 188-148 3-13 10-24 15-24s6-7 3-15c-4-8-1-21 5-29 6-7 8-16 5-19-4-3-3-14 1-24s7-30 6-45c-2-16 2-28 7-28 6 0 8-10 4-22-3-14-1-19 6-14 8 5 10 2 6-8-3-9-1-16 6-16 6 0 9-4 6-9s2-17 12-28c9-10 14-14 10-9-11 14-10 28 2 21 6-4 7 20 4 67-7 78-8 178-6 323 2 116-1 145-14 145-6 0-13-2-16-5zM4132 3389c-29-5-53-19-76-44-18-19-33-35-32-36l194-2c177-2 195-4 207-21 15-20 5-56-15-56-6 0-10-4-10-10s30-10 69-10c37 0 125-9 193-19 120-19 158-18 211 4 28 12 20 33-21 54-51 26-101 38-212 52-52 6-144 26-203 45-142 44-232 57-305 43zM6701 3068c24-18 47-31 52-30 4 1 21-20 38-48 17-27 35-50 40-50 6 0 8-3 5-8-2-4 4-34 15-65 18-54 23-91 33-262 4-85 21-138 47-150 12-6 21-14 20-18s18-25 42-45c37-32 42-42 36-60-13-34-36-37-73-8-19 14-48 26-64 26-32 0-105-44-142-87-14-15-18-23-11-16 12 10 17 8 26-10s8-25-4-35c-14-11-12-11 7-2 12 6 22 14 22 18s8 8 18 9c9 0 40 4 69 8 69 10 180-23 246-73 48-37 110-117 122-159 9-31 28-29 23 2-3 14-1 28 4 31s7 12 4 20 0 14 6 14 8 3 5 7c-4 3 1 12 11 20 9 8 12 12 5 9-6-4-21 6-33 21s-74 83-138 152c-123 130-144 157-167 208-25 58-46 222-47 360 0 124-2 136-19 140-10 3-16 9-13 14s1 9-5 9c-5 0-23 14-40 31-18 17-38 29-46 26-7-3-15-1-18 6-3 9-10 9-29 0-22-10-29-9-46 8-12 10-27 19-33 19-7 0 8-15 32-32z"/><path d="M6793 2413c-36-25-27-33 17-15 22 9 40 20 40 25 0 12-34 7-57-10z"/></g><g fill="#ebebeb"><path d="M6738 3833c12-2 32-2 45 0 12 2 2 4-23 4s-35-2-22-4zM6541 3779c-34-28-61-53-61-55s10-4 23-4 17 3 11 8c-17 10 70 83 109 92 30 8 31 8 5 9-18 1-45-15-87-50zM6600 3733c8-4 37-22 64-41 26-18 45-29 42-23-10 16-96 71-109 70-7 0-5-3 3-6zM6736 3625c24-39 24-40 24-28 0 6-9 21-21 34l-20 24 17-30zM4036 3325c-24-18-34-17 151-19 87 0 148 3 143 8s-72 7-149 4c-115-4-138-2-129 9 14 17 8 16-16-2zM4408 3300c12-5 22-15 22-21 0-7 3-9 6-6 10 10-16 37-35 36-11 0-9-3 7-9zM4418 3238c-22-23-22-28-1-28 9 0 13 3 10 7-4 3-2 12 5 20 17 21 5 22-14 1zM4531 3216c3-3 61-14 128-25 67-10 119-15 114-11-4 4-46 12-93 19s-101 15-120 18-32 3-29-1zM4796 3182c-3-5 8-6 25-4 16 2 29 6 29 8 0 8-49 4-54-4zM6705 3179c-28-6-26-7 13-8 42-1 53 3 30 11-7 2-26 1-43-3zM6680 3083c14-9 36-25 50-36 14-12 8-4-12 16s-42 37-50 37c-7 0-1-7 12-17zM6805 3058c11-6 27-16 35-22 9-6 5-1-8 12-13 12-28 22-35 22s-3-6 8-12zM6789 2995c5-11 17-29 26-40l16-20-10 20c-5 11-17 29-26 40l-16 20 10-20zM6830 2929c0-4 7-22 15-40 8-19 14-27 14-19 0 14-28 72-29 59zM6873 2755c0-22 2-30 4-17 2 12 2 30 0 40-3 9-5-1-4-23zM6883 2610c0-25 2-35 4-22 2 12 2 32 0 45-2 12-4 2-4-23zM6816 2419c2-4-6-9-18-11s-23-8-25-15c-3-8 9-7 36 5 45 19 52 28 22 28-11 0-18-3-15-7zM6951 2428c2-2 22-19 44-38l40-35-34 38c-19 20-39 37-45 37-5 0-7-1-5-2zM6819 2321c-24-17-56-43-69-58l-25-28 30 26c57 51 108 79 141 79 18 0 36-4 39-10 3-5 16-15 28-21 15-7 12-3-8 15-40 34-81 33-136-3zM7023 2324c-6-13-7-24-3-24 9 0 25 39 18 45-2 2-8-7-15-21zM7030 2214c42-15 150-89 150-103 1-3 12-19 27-36l26-30-17 30c-37 65-133 136-201 149-18 4-11-1 15-10zM7454 2121c-33-14-83-78-88-113-3-18-7-64-10-101-12-155-126-288-288-338-78-24-133-24-178-1-38 19-49 44-29 68 10 12 24 14 66 9 56-7 141 11 178 39 19 14 17 16-45 45-183 86-397 94-541 20-63-32-126-95-156-158-25-51-28-66-28-161 0-84 5-117 23-165 30-81 100-182 178-254 64-61 205-151 234-151 10 0 27 25 44 66 36 82 70 124 102 124 46 0 47-31 4-122-46-95-64-186-54-267 42-347 428-552 751-400 68 32 160 111 193 165 28 44 53 58 80 44 38-20 24-75-38-142-22-24-24-31-14-52 22-50 207-156 270-156 75 0 274 59 397 118l120 57h115c103 0 121-3 172-27 64-29 85-57 68-88-14-26-36-25-96 2-76 34-208 32-289-6-50-23-57-29-42-37 34-20 154-39 245-39 127 0 229 23 338 75 115 55 198 139 233 234 67 179-33 378-245 489l-82 42-7-36c-6-32-2-40 39-84 52-56 64-99 46-165-15-53-32-69-64-61-26 7-37 31-25 61 20 51 11 71-64 142-79 75-152 121-234 147-68 23-203 55-203 49 0-3 20-27 44-54 64-72 88-129 94-225 5-97-5-124-48-124-37 0-52 27-44 78 11 67-19 146-79 209-188 199-552 171-678-53-33-57-51-69-79-54-30 16-33 45-9 92 33 65 66 104 121 145 46 33 49 38 33 49-27 20-116 27-165 14-29-8-59-27-87-56-24-24-50-44-58-44-18 0-45 28-45 46 0 26 29 71 61 97l32 25-33 17c-75 39-260 255-260 304 0 25 20 41 52 41 24 0 35-10 71-67 78-121 223-232 322-248 17-2 71-11 120-20 50-8 199-24 331-35 324-26 524-70 652-141 54-31 59-31 40 0-9 14-5 38 21 119 18 55 31 108 29 118-2 13-31 23-120 44-126 28-148 40-148 76 0 42 26 45 155 13 66-16 125-29 131-29s21 23 32 51c19 45 20 54 8 77-36 70-119 102-381 147-114 19-216 40-228 46-56 29-72 64-42 89 13 11 47 7 188-19 94-18 208-39 252-47 94-18 167-49 217-93 20-17 41-31 47-31 41 0-34 178-97 230-72 60-101 64-472 64l-335 1-130 45c-71 25-170 66-220 92-254 134-322 160-371 139zM9492 2039c-43-31-53-49-28-49 7 0 21 12 31 26 15 24 22 26 66 22 35-4 49-1 49 7 0 7-7 16-16 19-32 12-61 5-102-25z"/><path d="M7247 2002c1-8 3-16 3-18s5-4 10-4c6 0 10 10 10 23 0 16-3 18-9 8-5-7-11-9-13-5-3 5-3 3-1-4z"/></g></svg>